<?xml version="1.0" encoding="utf-8"?>
<!-- Generator: Adobe Illustrator 16.0.0, SVG Export Plug-In . SVG Version: 6.00 Build 0)  -->
<!DOCTYPE svg PUBLIC "-//W3C//DTD SVG 1.1//EN" "http://www.w3.org/Graphics/SVG/1.1/DTD/svg11.dtd">
<svg version="1.1" id="Layer_1" xmlns="http://www.w3.org/2000/svg" xmlns:xlink="http://www.w3.org/1999/xlink" x="0px" y="0px"
	 width="453.333px" height="264.667px" viewBox="0 0 453.333 264.667" enable-background="new 0 0 453.333 264.667"
	 xml:space="preserve">
<path fill="none" stroke="#1A1A1A" stroke-width="3.149" d="M167.15,75.175c0,0-18.151,2.229-18.151,20.654v126.899
	c0,0,0,18.423,18.151,16.194l263.286-32.33c0,0,18.152-2.228,18.152-20.65V59.045c0,0,0-18.427-18.152-16.198L167.15,75.175z"/>
<path fill="#2A2929" d="M362.43,81.458c0.511-1.935,1.306-3.672,2.381-5.206c1.076-1.54,2.432-2.808,4.072-3.815
	c1.638-1.008,3.584-1.649,5.84-1.926c2.408-0.296,4.403-0.125,5.994,0.511c1.586,0.639,2.878,1.61,3.877,2.916
	c0.998,1.31,1.701,2.899,2.114,4.77c0.409,1.876,0.615,3.879,0.615,6.008c0,2.135-0.256,4.126-0.769,5.984
	c-0.511,1.856-1.293,3.499-2.343,4.926c-1.052,1.43-2.396,2.609-4.035,3.538c-1.641,0.929-3.588,1.534-5.838,1.811
	c-2.356,0.29-4.34,0.153-5.956-0.401c-1.613-0.556-2.916-1.435-3.918-2.638c-1-1.203-1.717-2.701-2.15-4.495
	c-0.436-1.79-0.653-3.753-0.653-5.885C361.661,85.424,361.916,83.391,362.43,81.458 M369.575,89.547
	c0.05,1.036,0.229,1.99,0.539,2.86c0.307,0.871,0.792,1.579,1.459,2.122c0.664,0.541,1.61,0.738,2.84,0.587
	c1.179-0.144,2.115-0.572,2.807-1.281c0.69-0.708,1.203-1.539,1.536-2.49c0.332-0.948,0.537-1.937,0.613-2.96
	c0.078-1.023,0.115-1.95,0.115-2.783c0-0.779-0.037-1.723-0.115-2.833c-0.076-1.11-0.268-2.162-0.574-3.167
	c-0.309-1-0.78-1.825-1.422-2.477c-0.643-0.647-1.525-0.904-2.65-0.766c-1.229,0.151-2.189,0.608-2.883,1.369
	c-0.689,0.76-1.217,1.658-1.573,2.688c-0.361,1.031-0.578,2.125-0.654,3.277c-0.077,1.154-0.115,2.172-0.115,3.057
	C369.497,87.582,369.523,88.514,369.575,89.547 M413.752,65.093l-31.654,61.835l-6.684,0.82l31.809-61.854L413.752,65.093z
	 M402.073,102.637c0.511-1.881,1.309-3.564,2.382-5.048c1.077-1.486,2.434-2.717,4.072-3.698c1.64-0.98,3.587-1.61,5.842-1.887
	c2.405-0.295,4.403-0.139,5.99,0.472c1.587,0.612,2.884,1.545,3.882,2.801c0.997,1.256,1.701,2.792,2.111,4.613
	c0.411,1.823,0.616,3.799,0.616,5.931c0,2.133-0.26,4.141-0.768,6.021c-0.516,1.884-1.298,3.563-2.346,5.046
	c-1.049,1.479-2.395,2.698-4.035,3.653c-1.638,0.952-3.584,1.571-5.836,1.847c-2.358,0.289-4.344,0.145-5.955-0.439
	c-1.615-0.58-2.922-1.499-3.92-2.755c-0.998-1.253-1.715-2.791-2.15-4.609c-0.436-1.819-0.653-3.793-0.653-5.926
	C401.306,106.528,401.562,104.521,402.073,102.637 M409.22,110.649c0.05,1.088,0.23,2.092,0.537,3.016
	c0.308,0.925,0.794,1.685,1.458,2.276c0.668,0.595,1.615,0.816,2.844,0.665c1.18-0.146,2.112-0.597,2.804-1.358
	c0.692-0.759,1.205-1.642,1.539-2.645c0.333-1.002,0.538-2.042,0.614-3.118c0.077-1.074,0.113-2.027,0.113-2.861
	c0-0.778-0.036-1.697-0.113-2.754c-0.076-1.055-0.268-2.045-0.576-2.97s-0.781-1.697-1.423-2.323
	c-0.64-0.621-1.522-0.863-2.647-0.726c-1.232,0.152-2.191,0.581-2.884,1.291c-0.691,0.708-1.216,1.552-1.574,2.532
	c-0.36,0.98-0.576,2.021-0.653,3.121c-0.077,1.103-0.114,2.095-0.114,2.98C409.144,108.608,409.168,109.565,409.22,110.649
	 M318.672,92.171c1.051-3.742,2.474-6.815,4.266-9.218c1.792-2.405,3.881-4.222,6.262-5.448c2.383-1.229,4.905-2.007,7.569-2.333
	c2.713-0.334,5.262-0.178,7.644,0.465c2.381,0.642,4.482,1.945,6.301,3.905c1.818,1.961,3.253,4.683,4.301,8.168
	c1.051,3.484,1.577,7.879,1.577,13.182c0,5.457-0.526,10.086-1.577,13.881c-1.048,3.793-2.482,6.893-4.301,9.3
	s-3.92,4.226-6.301,5.455c-2.382,1.224-4.931,2.005-7.644,2.34c-2.664,0.327-5.187,0.169-7.569-0.476
	c-2.381-0.641-4.47-1.947-6.262-3.909c-1.792-1.963-3.215-4.712-4.266-8.25c-1.048-3.535-1.574-8.036-1.574-13.495
	C317.098,100.439,317.624,95.915,318.672,92.171 M328.163,110.037c0.102,2.197,0.422,4.289,0.962,6.277
	c0.535,1.988,1.395,3.639,2.573,4.948c1.177,1.311,2.867,1.831,5.07,1.561c2.253-0.277,3.981-1.217,5.186-2.82
	c1.203-1.601,2.073-3.464,2.611-5.585c0.538-2.119,0.858-4.291,0.96-6.513c0.104-2.222,0.154-4.112,0.154-5.673
	c0-0.937-0.014-2.066-0.039-3.387c-0.024-1.324-0.126-2.676-0.305-4.057c-0.182-1.381-0.437-2.74-0.771-4.079
	c-0.333-1.337-0.832-2.509-1.497-3.521c-0.667-1.008-1.51-1.788-2.533-2.338c-1.028-0.55-2.283-0.736-3.767-0.554
	c-1.489,0.183-2.728,0.674-3.728,1.474c-0.999,0.798-1.817,1.782-2.458,2.951c-0.642,1.171-1.142,2.466-1.499,3.889
	c-0.358,1.423-0.614,2.845-0.768,4.268c-0.153,1.421-0.244,2.797-0.27,4.126c-0.024,1.329-0.037,2.46-0.037,3.396
	C328.01,105.96,328.059,107.839,328.163,110.037 M275.957,97.417c1.049-3.742,2.47-6.815,4.264-9.219
	c1.791-2.403,3.88-4.221,6.26-5.447c2.383-1.229,4.905-2.006,7.569-2.333c2.716-0.333,5.263-0.18,7.646,0.465
	c2.382,0.642,4.48,1.945,6.3,3.905c1.815,1.96,3.252,4.682,4.302,8.167c1.051,3.485,1.574,7.88,1.574,13.182
	c0,5.458-0.523,10.087-1.574,13.882c-1.05,3.793-2.486,6.894-4.302,9.301c-1.819,2.404-3.918,4.225-6.3,5.449
	c-2.383,1.23-4.93,2.01-7.646,2.346c-2.664,0.326-5.187,0.168-7.569-0.476c-2.38-0.64-4.469-1.947-6.26-3.912
	c-1.794-1.961-3.215-4.711-4.264-8.247c-1.051-3.536-1.574-8.037-1.574-13.495C274.383,105.683,274.906,101.16,275.957,97.417
	 M285.446,115.281c0.1,2.197,0.423,4.291,0.958,6.278c0.537,1.989,1.395,3.639,2.574,4.948c1.178,1.312,2.868,1.831,5.071,1.561
	c2.255-0.276,3.981-1.217,5.183-2.82c1.206-1.601,2.076-3.464,2.614-5.585c0.54-2.119,0.858-4.291,0.963-6.512
	c0.102-2.223,0.151-4.112,0.151-5.674c0-0.937-0.012-2.065-0.036-3.387c-0.028-1.325-0.129-2.677-0.311-4.057
	c-0.18-1.381-0.434-2.741-0.768-4.079c-0.331-1.338-0.832-2.509-1.496-3.521c-0.666-1.009-1.511-1.788-2.537-2.337
	c-1.025-0.55-2.28-0.736-3.764-0.554c-1.486,0.184-2.728,0.674-3.728,1.474c-0.999,0.798-1.817,1.781-2.457,2.951
	c-0.643,1.171-1.14,2.467-1.5,3.89c-0.356,1.423-0.613,2.844-0.768,4.268c-0.151,1.42-0.242,2.796-0.267,4.127
	c-0.027,1.328-0.041,2.459-0.041,3.396C285.29,111.207,285.342,113.084,285.446,115.281 M254.25,140.984V105.58l-13.521,1.66v-8.344
	c1.895-0.182,3.728-0.549,5.492-1.103c1.769-0.556,3.356-1.348,4.765-2.38c1.409-1.03,2.599-2.31,3.571-3.831
	c0.974-1.524,1.616-3.344,1.922-5.462l8.682-1.066v54.591L254.25,140.984z"/>
<path fill="#2A2929" d="M426.728,161.167v4.053l-11.393,1.397v4.691l10.454-1.283v3.738l-10.454,1.284v5.368l11.634-1.429v4.047
	l-16.375,2.01V163.15L426.728,161.167z M407.149,163.572v4.048l-11.389,1.402v4.687l10.452-1.283v3.743l-10.452,1.284v5.363
	l11.632-1.426v4.049l-16.374,2.011v-21.899L407.149,163.572z M370.868,172.076v-4.048l17.673-2.173v4.052l-6.463,0.795v17.846
	l-4.744,0.581v-17.848L370.868,172.076z M354.889,169.989l9.003,13.585l0.059-0.009v-14.688l4.442-0.546v21.895l-4.744,0.581
	l-8.971-13.555l-0.061,0.006v14.66l-4.441,0.544V170.57L354.889,169.989z M340.236,171.791l8.066,20.904l-4.926,0.604l-1.629-4.68
	l-8.065,0.995l-1.692,5.081l-4.771,0.585l8.156-22.896L340.236,171.791z M340.51,185.189l-2.718-7.705l-0.062,0.01l-2.811,8.381
	L340.51,185.189z M319.301,174.358c0.969-0.117,1.84-0.068,2.616,0.154s1.438,0.576,1.991,1.057
	c0.555,0.485,0.979,1.075,1.268,1.766c0.294,0.689,0.439,1.452,0.439,2.291c0,1.284-0.266,2.437-0.799,3.44
	c-0.533,1.007-1.404,1.828-2.614,2.469v0.058c0.584,0.091,1.069,0.282,1.45,0.573c0.384,0.289,0.694,0.653,0.937,1.084
	c0.243,0.431,0.419,0.911,0.529,1.451s0.187,1.084,0.225,1.63c0.022,0.345,0.042,0.752,0.063,1.215
	c0.019,0.473,0.055,0.949,0.104,1.43c0.05,0.485,0.129,0.94,0.24,1.366c0.11,0.427,0.277,0.781,0.501,1.057l-4.744,0.586
	c-0.263-0.667-0.424-1.47-0.482-2.428c-0.062-0.952-0.15-1.86-0.272-2.722c-0.161-1.126-0.504-1.925-1.028-2.392
	c-0.523-0.469-1.378-0.626-2.567-0.48l-4.741,0.579v8.559l-4.745,0.58v-21.893L319.301,174.358z M317.611,184.474
	c1.086-0.137,1.902-0.482,2.447-1.04c0.544-0.554,0.816-1.388,0.816-2.491c0-1.062-0.272-1.802-0.816-2.214
	c-0.545-0.413-1.361-0.554-2.447-0.422l-5.195,0.64v6.166L317.611,184.474z M297.731,177.009l8.068,20.904l-4.924,0.604
	l-1.633-4.674l-8.065,0.989l-1.69,5.081l-4.773,0.587l8.156-22.897L297.731,177.009z M298.004,190.407l-2.718-7.705l-0.06,0.01
	l-2.809,8.381L298.004,190.407z M280.455,199.351c-1.634,1.644-3.889,2.642-6.769,2.996c-2.919,0.357-5.181-0.082-6.78-1.316
	c-1.602-1.234-2.404-3.34-2.404-6.326v-13.616l4.743-0.581v13.612c0,0.595,0.05,1.171,0.152,1.729
	c0.1,0.563,0.311,1.045,0.635,1.443c0.32,0.399,0.769,0.704,1.344,0.907c0.573,0.204,1.345,0.245,2.311,0.127
	c1.692-0.209,2.858-0.73,3.506-1.578c0.642-0.845,0.965-2.082,0.965-3.722v-13.616l4.743-0.581v13.617
	C282.9,195.408,282.084,197.713,280.455,199.351 M254.444,204.048c-1.026,0.567-2.065,0.916-3.11,1.043
	c-1.654,0.205-3.139,0.092-4.459-0.327c-1.318-0.421-2.43-1.089-3.335-1.995c-0.908-0.913-1.604-2.029-2.085-3.35
	c-0.485-1.319-0.727-2.776-0.727-4.374c0-1.634,0.241-3.181,0.727-4.643c0.48-1.46,1.177-2.768,2.085-3.92
	c0.905-1.152,2.017-2.104,3.335-2.862c1.32-0.754,2.805-1.23,4.459-1.435c1.105-0.137,2.179-0.104,3.217,0.109
	c1.035,0.209,1.974,0.59,2.808,1.143c0.839,0.55,1.527,1.275,2.073,2.169c0.538,0.89,0.875,1.956,0.995,3.19l-4.533,0.554
	c-0.283-1.189-0.823-2.046-1.631-2.559c-0.806-0.514-1.783-0.699-2.929-0.56c-1.07,0.132-1.975,0.45-2.719,0.963
	c-0.749,0.508-1.353,1.147-1.815,1.91c-0.462,0.759-0.8,1.602-1.01,2.528c-0.212,0.925-0.319,1.868-0.319,2.831
	c0,0.921,0.107,1.801,0.319,2.645c0.21,0.84,0.548,1.583,1.01,2.22c0.463,0.639,1.066,1.12,1.815,1.447
	c0.744,0.33,1.648,0.426,2.719,0.295c1.569-0.19,2.782-0.744,3.638-1.657c0.855-0.911,1.354-2.146,1.495-3.692l-4.771,0.584v-3.588
	l9.062-1.111v11.833l-3.023,0.372l-0.481-2.423C256.408,202.596,255.47,203.485,254.444,204.048"/>
<path fill="#2A2929" d="M413.234,132.804v8.218l7.633-9.153l5.363-0.656l-7.635,8.766l8.373,10.968l-5.39,0.661l-5.88-8.189
	l-2.465,2.826v6.39l-4.295,0.526v-19.824L413.234,132.804z M401.199,139.574c-0.256-0.387-0.574-0.713-0.958-0.98
	s-0.815-0.458-1.3-0.576c-0.483-0.118-0.988-0.146-1.518-0.078c-0.969,0.118-1.788,0.409-2.461,0.872
	c-0.678,0.463-1.224,1.039-1.644,1.729c-0.419,0.69-0.724,1.451-0.916,2.291c-0.19,0.84-0.288,1.692-0.288,2.564
	c0,0.83,0.098,1.629,0.288,2.396c0.192,0.762,0.497,1.429,0.916,2.01c0.42,0.576,0.966,1.018,1.644,1.312
	c0.673,0.296,1.492,0.387,2.461,0.269c1.311-0.164,2.34-0.694,3.077-1.603c0.739-0.902,1.188-2.032,1.356-3.385l4.156-0.513
	c-0.111,1.257-0.393,2.409-0.849,3.467c-0.457,1.052-1.06,1.979-1.806,2.777c-0.748,0.793-1.623,1.438-2.625,1.933
	c-1.006,0.489-2.106,0.813-3.311,0.958c-1.498,0.185-2.84,0.086-4.036-0.296c-1.193-0.381-2.2-0.984-3.022-1.806
	c-0.82-0.825-1.449-1.838-1.888-3.031c-0.436-1.198-0.655-2.518-0.655-3.961c0-1.479,0.22-2.881,0.655-4.202
	c0.438-1.325,1.067-2.505,1.888-3.553c0.822-1.043,1.829-1.906,3.022-2.591c1.196-0.686,2.538-1.121,4.036-1.303
	c1.075-0.131,2.091-0.099,3.052,0.1c0.956,0.195,1.812,0.55,2.571,1.059c0.755,0.508,1.381,1.18,1.871,2.005
	c0.494,0.826,0.803,1.811,0.933,2.94l-4.161,0.508C401.618,140.395,401.456,139.959,401.199,139.574 M379.668,136.929l7.306,18.926
	l-4.46,0.549l-1.476-4.234l-7.306,0.899l-1.531,4.601l-4.323,0.531l7.388-20.732L379.668,136.929z M379.916,149.058l-2.462-6.971
	l-0.054,0.005l-2.547,7.587L379.916,149.058z M359.563,155.831c0.42-0.05,0.821-0.14,1.205-0.267
	c0.383-0.132,0.719-0.313,1.012-0.545c0.291-0.231,0.524-0.521,0.697-0.876c0.172-0.354,0.26-0.793,0.26-1.312
	c0-1.017-0.284-1.706-0.848-2.073c-0.566-0.368-1.312-0.49-2.245-0.377l-4.676,0.571v5.445L359.563,155.831z M359.864,139.36
	c0.931-0.118,1.776-0.141,2.546-0.068c0.765,0.077,1.422,0.269,1.97,0.581c0.544,0.313,0.968,0.763,1.271,1.357
	c0.301,0.594,0.45,1.353,0.45,2.277c0,0.998-0.224,1.86-0.669,2.582c-0.446,0.721-1.109,1.347-1.984,1.879
	c1.202,0.208,2.102,0.712,2.694,1.515c0.593,0.809,0.89,1.834,0.89,3.072c0,0.998-0.19,1.893-0.576,2.668
	c-0.382,0.78-0.896,1.438-1.545,1.979c-0.647,0.544-1.385,0.975-2.215,1.303c-0.83,0.321-1.681,0.539-2.559,0.644l-9.465,1.162
	v-19.825L359.864,139.36z M359.318,147.45c0.764-0.094,1.395-0.357,1.887-0.789s0.736-1.063,0.736-1.892
	c0-0.468-0.08-0.836-0.244-1.107c-0.165-0.277-0.384-0.486-0.658-0.617c-0.271-0.132-0.587-0.209-0.943-0.231
	c-0.354-0.019-0.725-0.009-1.107,0.041l-4.021,0.489v4.638L359.318,147.45z M322.715,143.92l4.814-0.594l4.567,7.27l4.542-8.386
	l4.788-0.59l-7.25,13.108v7.609l-4.294,0.527v-7.718L322.715,143.92z M321.703,144.043v3.667l-10.315,1.266v4.247l9.468-1.161v3.389
	l-9.468,1.162v4.859l10.534-1.293v3.662l-14.827,1.824v-19.83L321.703,144.043z M291.092,147.801l8.151,12.301l0.057-0.005v-13.305
	l4.02-0.489v19.824l-4.295,0.526L290.9,154.38l-0.055,0.009v13.269l-4.021,0.494v-19.824L291.092,147.801z M265.35,156.835
	c0.438-1.32,1.066-2.505,1.888-3.549s1.829-1.91,3.024-2.596c1.192-0.681,2.536-1.116,4.033-1.298
	c1.514-0.187,2.861-0.082,4.049,0.31c1.184,0.39,2.188,1.007,3.008,1.852c0.821,0.843,1.451,1.868,1.89,3.084
	c0.437,1.217,0.655,2.564,0.655,4.044c0,1.447-0.219,2.817-0.655,4.12c-0.438,1.306-1.068,2.469-1.89,3.498
	c-0.82,1.025-1.824,1.874-3.008,2.546c-1.188,0.671-2.535,1.103-4.049,1.288c-1.497,0.187-2.841,0.086-4.033-0.295
	c-1.195-0.382-2.203-0.985-3.024-1.806c-0.821-0.826-1.449-1.838-1.888-3.031c-0.438-1.198-0.656-2.519-0.656-3.961
	C264.693,159.557,264.912,158.159,265.35,156.835 M269.277,162.905c0.189,0.767,0.494,1.435,0.914,2.015
	c0.42,0.576,0.966,1.017,1.643,1.312c0.671,0.295,1.492,0.386,2.461,0.268c0.967-0.122,1.789-0.413,2.462-0.871
	c0.674-0.462,1.221-1.034,1.64-1.72c0.42-0.681,0.727-1.425,0.92-2.231c0.19-0.813,0.286-1.635,0.286-2.464
	c0-0.872-0.096-1.703-0.286-2.496c-0.193-0.79-0.5-1.479-0.92-2.065c-0.419-0.59-0.966-1.029-1.64-1.328
	c-0.673-0.296-1.495-0.387-2.462-0.264c-0.969,0.118-1.79,0.408-2.461,0.87c-0.677,0.464-1.223,1.04-1.643,1.729
	s-0.725,1.452-0.914,2.292c-0.193,0.839-0.291,1.692-0.291,2.563C268.986,161.345,269.084,162.144,269.277,162.905 M246.774,153.245
	l4.567,13.073l0.058-0.01l4.318-14.162l6.048-0.743v19.823l-4.021,0.496v-14.054l-0.054,0.009l-4.79,14.639l-3.307,0.408
	l-4.789-13.322l-0.055,0.005v13.912l-4.021,0.494v-19.829L246.774,153.245z"/>
<path fill="#E6E3DE" d="M127.207,36.162l-7.896-13.343l-8.379-9.109L91.323,7.167l-16.92,3.627l-6.83,3.5l-2.644,8.054l1.55,7.04
	l4.968,16.429l3.014,16.632c0,0-4.106,15.175-6.546,19.608c-2.438,4.431-10.937,13.104-10.937,13.104s-1.146,1.676-3.42,4.155
	c-2.273,2.473-0.649,1.376-5.854,3.776c-5.202,2.398-15.045,5.982-15.045,5.982l-16.063,18.513L9.445,146.91l-1.006,29.245
	l6.386,18.954l13.106,22.079l10.617,8.295l14.24,2.927l6.338,1.075l19.212,13.436l24.936,8.657l14.642,1.257l16.92,1.947l27.7-0.458
	l20.415-7.937l24.603-20.098l10.246-27.537l-7.853-15.365l4.263-5.626l11.056-19.729l0.611-10.863l-5.539-9.638l-13.546-10.771
	l-8.925-0.84l3.923-5.954l13.619-19.647l-0.979-13.828l-4.561-12.529c0,0-3.742-4.717-10.248-5.893
	c-6.512-1.183-30.144-0.685-30.144-0.685l-18.057,6.065l-12.403,9.075l-8.419,6.103l-3.134-4.431l-0.774-11.876l1.137-13.589
	L127.207,36.162z"/>
<path fill="#2A2929" d="M130.436,36.593C116.791-5.722,68.992,1.235,62.517,17.409c-6.473,16.167,7.298,22.967,8.151,42.446
	c0.708,16.036-8.944,27.377-18.222,39.317c-15.231-1.445-55.304,24.264-46.28,73.426c8.837,48.094,35.466,63.59,50.807,57.805
	c20.312,21.367,52.179,24.121,64.324,24.348c12.916,5.744,29.44,7.332,46.997,2.908c24.766-6.23,56.84-42.416,50.676-65.553
	c-1.102-4.126-3.233-7.61-6.089-10.551c6.342-4.373,20.372-16.771,14.237-37.929c-2.825-9.72-12.401-16.992-25.168-20.609
	c7.903-6.175,23.852-21.737,15.952-42.127c-8.998-23.195-45.498-21.446-65.246-11.991c-7.506,3.599-16.428,8.88-24.134,15.28
	c-0.084-0.934-0.247-1.968-0.511-3.097C125.765,71.621,136.41,55.104,130.436,36.593 M211.42,83.827
	c6.458,16.263-6.779,31.191-14.318,38.023c-11.625-2.317-25.296-1.807-38.754,2.343c-8.034,2.474-15.456,5.868-21.956,9.777
	c-6.673-1.578-16.511-5.224-19.499-13.341c-4.656-12.634,10.528-33.14,38.337-45.066C183.044,63.628,204.706,66.941,211.42,83.827
	 M221.907,144.692c4.583,17.229-8.66,29.834-13.01,33.423c-14.355-10.387-39.49-11.53-54.449-8.631
	c-10.822,2.088-20.92,5.944-28.983,10.872c-3.708-2.068-7.98-5.953-8.212-12.94c-0.417-12.479,14.327-27.384,42.864-36.599
	C188.646,121.602,218.442,131.701,221.907,144.692 M68.189,21.579c8.174-17.771,46.998-13.12,56.063,17.502
	c4.799,16.235-3.271,35.311-1.027,44.773c0.389,1.64,0.853,2.89,1.342,3.822c-10.463,9.86-17.382,21.885-12.627,34.356
	c4.186,10.989,12.518,14.842,18.021,16.19c-12.369,9.057-19.785,19.965-18.532,29.131c1.256,9.185,6.156,13.735,9.745,15.887
	c-10.018,7.341-15.631,16.512-13.146,25.826c3.108,11.612,19.982,22.547,40.351,20.684c2.888,5.386,12.809,9.887,20.057,9.561
	c-8.529-4.158-12.667-7.256-13.739-10.528c7.721-1.696,15.77-5.295,23.641-11.398c-35.21,14.839-61.803,0.392-65.07-11.407
	c-3.275-11.802,20.576-25.872,41.028-30.355c13.722-3.014,51.12-3.88,57.188,18.886c6.069,22.751-25.546,49.726-44.682,55.635
	c-16.207,4.999-47.533,5.681-63.879-9.316c2.263,2.899,4.968,5.531,8.039,7.863c-10.018-0.64-62.167-6.919-71.857-68.345
	c-0.005,19.34,5.184,33.638,12.996,44.251c-9.883,1.044-33.314-8.131-39.728-50.494C6,131.986,33.926,110.558,47.622,105.627
	c-5.462,7.642-10.075,15.856-11.238,25.951c-2.213,19.244,3.859,30.864,3.859,30.864c-2.445-14.325-0.721-27.928,4.912-40.968
	c10.672-24.699,32.627-34.462,31.53-59.705C75.76,40.438,63.962,30.774,68.189,21.579"/>
<path fill="none" stroke="#2A2929" stroke-width="0.686" stroke-miterlimit="10" d="M130.436,36.593
	C116.791-5.722,68.992,1.235,62.517,17.409c-6.473,16.167,7.298,22.967,8.151,42.446c0.708,16.036-8.944,27.377-18.222,39.317
	c-15.231-1.445-55.304,24.264-46.28,73.426c8.837,48.094,35.466,63.59,50.807,57.805c20.312,21.367,52.179,24.121,64.324,24.348
	c12.916,5.744,29.44,7.332,46.997,2.908c24.766-6.23,56.84-42.416,50.676-65.553c-1.102-4.126-3.233-7.61-6.089-10.551
	c6.342-4.373,20.372-16.771,14.237-37.929c-2.825-9.72-12.401-16.992-25.168-20.609c7.903-6.175,23.852-21.737,15.952-42.127
	c-8.998-23.195-45.498-21.446-65.246-11.991c-7.506,3.599-16.428,8.88-24.134,15.28c-0.084-0.934-0.247-1.968-0.511-3.097
	C125.765,71.621,136.41,55.104,130.436,36.593z M211.42,83.827c6.458,16.263-6.779,31.191-14.318,38.023
	c-11.625-2.317-25.296-1.807-38.754,2.343c-8.034,2.474-15.456,5.868-21.956,9.777c-6.673-1.578-16.511-5.224-19.499-13.341
	c-4.656-12.634,10.528-33.14,38.337-45.066C183.044,63.628,204.706,66.941,211.42,83.827z M221.907,144.692
	c4.583,17.229-8.66,29.834-13.01,33.423c-14.355-10.387-39.49-11.53-54.449-8.631c-10.822,2.088-20.92,5.944-28.983,10.872
	c-3.708-2.068-7.98-5.953-8.212-12.94c-0.417-12.479,14.327-27.384,42.864-36.599C188.646,121.602,218.442,131.701,221.907,144.692z
	 M68.189,21.579c8.174-17.771,46.998-13.12,56.063,17.502c4.799,16.235-3.271,35.311-1.027,44.773
	c0.389,1.64,0.853,2.89,1.342,3.822c-10.463,9.86-17.382,21.885-12.627,34.356c4.186,10.989,12.518,14.842,18.021,16.19
	c-12.369,9.057-19.785,19.965-18.532,29.131c1.256,9.185,6.156,13.735,9.745,15.887c-10.018,7.341-15.631,16.512-13.146,25.826
	c3.108,11.612,19.982,22.547,40.351,20.684c2.888,5.386,12.809,9.887,20.057,9.561c-8.529-4.158-12.667-7.256-13.739-10.528
	c7.721-1.696,15.77-5.295,23.641-11.398c-35.21,14.839-61.803,0.392-65.07-11.407c-3.275-11.802,20.576-25.872,41.028-30.355
	c13.722-3.014,51.12-3.88,57.188,18.886c6.069,22.751-25.546,49.726-44.682,55.635c-16.207,4.999-47.533,5.681-63.879-9.316
	c2.263,2.899,4.968,5.531,8.039,7.863c-10.018-0.64-62.167-6.919-71.857-68.345c-0.005,19.34,5.184,33.638,12.996,44.251
	c-9.883,1.044-33.314-8.131-39.728-50.494C6,131.986,33.926,110.558,47.622,105.627c-5.462,7.642-10.075,15.856-11.238,25.951
	c-2.213,19.244,3.859,30.864,3.859,30.864c-2.445-14.325-0.721-27.928,4.912-40.968c10.672-24.699,32.627-34.462,31.53-59.705
	C75.76,40.438,63.962,30.774,68.189,21.579z"/>
</svg>
